# xmcd
# 
# Track frame offsets:
#     150
#     14421
#     32301
#     47765
#     65723
#     81375
#     97929
#     116672
#     134832
#     149960
#     166002
#     188353
# 
# Disc length: 2664
# 
# Revision: 0
# Processed by: cddbd v1.5.2PL0 Copyright (c) Steve Scherf et al.
# Submitted via: fre:ac v1.0.31
# 
DISCID=a50a660c
DTITLE=2frères - La route
DYEAR=2017
DGENRE=Pop-Folk
TTITLE0=Comme avant
TTITLE1=Un peu de toi
TTITLE2=On est ben
TTITLE3=Au sommet
TTITLE4=Une seule fois
TTITLE5=Leo Gagne
TTITLE6=Mom
TTITLE7=Pense plus a elle
TTITLE8=En dedans, comme en dehors
TTITLE9=Ti-gars
TTITLE10=La route
TTITLE11=Elle ecoute pousser les fleurs
EXTD=
EXTT0=
EXTT1=
EXTT2=
EXTT3=
EXTT4=
EXTT5=
EXTT6=
EXTT7=
EXTT8=
EXTT9=
EXTT10=
EXTT11=
PLAYORDER=
